<?xml version="1.0" encoding="iso-8859-1"?>
<!-- Generator: Adobe Illustrator 19.0.0, SVG Export Plug-In . SVG Version: 6.00 Build 0)  -->
<svg version="1.1" id="Layer_1" xmlns="http://www.w3.org/2000/svg" xmlns:xlink="http://www.w3.org/1999/xlink" x="0px" y="0px"
	 viewBox="0 0 315 315" style="enable-background:new 0 0 315 315;" xml:space="preserve">
<g id="XMLID_15_">
	<path id="XMLID_16_" d="M110.005,0C49.348,0,0,49.348,0,110.005C0,170.662,49.348,220.01,110.005,220.01
		s110.006-49.348,110.006-110.005C220.011,49.348,170.662,0,110.005,0z M110.005,180.008c-38.6,0-70.003-31.403-70.003-70.002
		c0-8.284,6.716-15,15-15c8.284,0,15,6.716,15,15c0,22.057,17.945,40.002,40.003,40.002c8.284,0,15,6.716,15,15
		S118.289,180.008,110.005,180.008z"/>
	<path id="XMLID_19_" d="M310.606,289.394l-91.614-91.614c-6.297,7.802-13.41,14.917-21.213,21.213l91.614,91.614
		C292.322,313.536,296.161,315,300,315c3.839,0,7.678-1.464,10.606-4.394C316.465,304.749,316.465,295.251,310.606,289.394z"/>
</g>
<g>
</g>
<g>
</g>
<g>
</g>
<g>
</g>
<g>
</g>
<g>
</g>
<g>
</g>
<g>
</g>
<g>
</g>
<g>
</g>
<g>
</g>
<g>
</g>
<g>
</g>
<g>
</g>
<g>
</g>
</svg>
